<svg width="60" height="60" viewBox="0 0 60 60" fill="none" xmlns="http://www.w3.org/2000/svg">
<g clip-path="url(#clip0)">
<path d="M31.1811 54.2127C31.1811 54.8647 30.6508 55.3939 30 55.3939C29.3492 55.3939 28.8189 54.8647 28.8189 54.2127C28.8189 53.562 29.3492 53.0316 30 53.0316C30.6508 53.0316 31.1811 53.562 31.1811 54.2127ZM9.40465 25.1576C8.75232 25.1576 8.22354 25.6864 8.22354 26.3387C8.22354 26.9911 8.75232 27.5198 9.40465 27.5198H11.811V39.3309C11.811 39.9832 12.3398 40.512 12.9921 40.512C13.6444 40.512 14.1732 39.9832 14.1732 39.3309V27.5198H16.5796C17.2319 27.5198 17.7607 26.9911 17.7607 26.3387C17.7607 25.6864 17.2319 25.1576 16.5796 25.1576H9.40465ZM50.315 15.945C53.0503 15.945 55.2756 18.1703 55.2756 20.9057C55.2756 23.641 53.0503 25.8663 50.315 25.8663C47.5796 25.8663 45.3543 23.641 45.3543 20.9057C45.3543 18.1703 47.5796 15.945 50.315 15.945ZM47.7165 20.9057C47.7165 22.3385 48.8822 23.5041 50.315 23.5041C51.7478 23.5041 52.9134 22.3385 52.9134 20.9057C52.9134 19.4729 51.7478 18.3072 50.315 18.3072C48.8822 18.3072 47.7165 19.4729 47.7165 20.9057ZM47.0079 55.3939H35.315C34.6381 55.3939 34.0915 54.8214 34.1365 54.1337C34.1776 53.506 34.7274 53.0316 35.3564 53.0316H45.8268V50.6694H37.0866C35.1296 50.6694 33.5433 49.0831 33.5433 47.1261V44.0553C33.5433 42.0983 35.1296 40.512 37.0866 40.512H45.8268V35.5513H29.5276C28.8752 35.5513 28.3465 35.0226 28.3465 34.3702V12.4017C28.3465 11.7494 28.8752 11.2206 29.5276 11.2206H45.8268V8.14975C45.8268 7.49743 45.298 6.96865 44.6457 6.96865H15.3543C14.702 6.96865 14.1732 7.49743 14.1732 8.14975V19.8427H24.8032C25.4555 19.8427 25.9843 20.3714 25.9843 21.0238V44.6458C25.9843 45.2981 25.4555 45.8269 24.8032 45.8269H14.1732V53.0316H24.6436C25.2726 53.0316 25.8224 53.506 25.8635 54.1337C25.9085 54.8214 25.3619 55.3939 24.685 55.3939H12.9921C12.3398 55.3939 11.811 54.8651 11.811 54.2127V45.8269H1.1811C0.52878 45.8269 0 45.2981 0 44.6458V21.0238C0 20.3714 0.52878 19.8427 1.1811 19.8427H11.811V8.14975C11.811 6.19278 13.3974 4.60645 15.3543 4.60645H44.6457C46.6026 4.60645 48.189 6.19278 48.189 8.14975V11.2206H58.8189C59.4712 11.2206 60 11.7494 60 12.4017V34.3702C60 35.0226 59.4712 35.5513 58.8189 35.5513H48.189V40.512H51.2598C53.2168 40.512 54.8032 42.0983 54.8032 44.0553V47.1261C54.8032 49.0831 53.2168 50.6694 51.2598 50.6694H48.189V54.2127C48.189 54.8651 47.6602 55.3939 47.0079 55.3939ZM23.622 22.2049H2.3622V43.4647H23.622V22.2049ZM51.2598 42.8742H37.0866C36.4354 42.8742 35.9055 43.404 35.9055 44.0553V47.1261C35.9055 47.7774 36.4354 48.3072 37.0866 48.3072H51.2598C51.9111 48.3072 52.4409 47.7774 52.4409 47.1261V44.0553C52.4409 43.404 51.9111 42.8742 51.2598 42.8742ZM30.7087 33.1891H49.0033L38.0996 22.9966C36.7428 21.7283 34.617 21.7281 33.2603 22.9966L30.7087 25.3819V33.1891ZM57.6378 13.5828H30.7087V22.1483L31.6472 21.271C33.9086 19.157 37.4516 19.1572 39.7128 21.271L52.4626 33.1891H57.6378V13.5828Z" fill="#256BB7"/>
</g>
<defs>
<clipPath id="clip0">
<rect width="60" height="60" fill="white"/>
</clipPath>
</defs>
</svg>
